# xmcd
#
# Track frame offsets:
#	150
#	14226
#	32616
#	50508
#	68631
#	87000
#	100775
#	114969
#	134419
#	148292
#	165433
#	180068
#
# Disc length: 2668 seconds
#
# Revision: 2
# Processed by: cddbd v1.5.1PL0 Copyright (c) Steve Scherf et al.
# Submitted via: EasyCDDAExtractor 7.0.6.1
#
DISCID=960a6a0c
DTITLE=Carlos Cuevas - Como el compás de un bolero -CD1
DYEAR=2000
DGENRE=Ballad
TTITLE0=No no y no
TTITLE1=Vuelveme a querer
TTITLE2=Por el amor de una mujer
TTITLE3=Vereda tropical
TTITLE4=Y despues del amor
TTITLE5=Enamorado de ti
TTITLE6=Si regresas a mi
TTITLE7=Sabras que te quiero
TTITLE8=Bajo un palmar
TTITLE9=Yo sin ti
TTITLE10=Solamente una vez
TTITLE11=Ribadesella
EXTD=
EXTT0=
EXTT1=
EXTT2=
EXTT3=
EXTT4=
EXTT5=
EXTT6=
EXTT7=
EXTT8=
EXTT9=
EXTT10=
EXTT11=
PLAYORDER=
